<svg version="1.2" xmlns="http://www.w3.org/2000/svg" viewBox="0 0 400 400" width="400" height="400">
	<style>
		.s0 { fill: #b57d00 } 
		.s1 { fill: #f9e8c2 } 
		.s2 { fill: #772724 } 
		.s3 { fill: #ffe537 } 
		.s4 { fill: #ffdef8 } 
	</style>
	<path id="Layer 1" fill-rule="evenodd" class="s0" d="m200 400c-110.6 0-200-89.4-200-200 0-110.6 89.4-200 200-200 110.6 0 200 89.4 200 200 0 110.6-89.4 200-200 200z"/>
	<path id="Layer 2 copy" fill-rule="evenodd" class="s1" d="m199.75 382.5c-101.06 0-182.75-81.69-182.75-182.75 0-101.06 81.69-182.75 182.75-182.75 101.06 0 182.75 81.69 182.75 182.75 0 101.06-81.69 182.75-182.75 182.75z"/>
	<g id="Folder 1">
		<path id="Layer 3" fill-rule="evenodd" class="s2" d="m138.25 109.5c-16.73 0-30.25-13.52-30.25-30.25 0-16.73 13.52-30.25 30.25-30.25 16.73 0 30.25 13.52 30.25 30.25 0 16.73-13.52 30.25-30.25 30.25z"/>
		<path id="Layer 3 copy" fill-rule="evenodd" class="s2" d="m305.25 146.5c-16.73 0-30.25-13.52-30.25-30.25 0-16.73 13.52-30.25 30.25-30.25 16.73 0 30.25 13.52 30.25 30.25 0 16.73-13.52 30.25-30.25 30.25z"/>
		<path id="Layer 3 copy 2" fill-rule="evenodd" class="s2" d="m250.25 237.5c-16.73 0-30.25-13.52-30.25-30.25 0-16.73 13.52-30.25 30.25-30.25 16.73 0 30.25 13.52 30.25 30.25 0 16.73-13.52 30.25-30.25 30.25z"/>
		<path id="Layer 3 copy 3" fill-rule="evenodd" class="s2" d="m145.25 200.5c-16.73 0-30.25-13.52-30.25-30.25 0-16.73 13.52-30.25 30.25-30.25 16.73 0 30.25 13.52 30.25 30.25 0 16.73-13.52 30.25-30.25 30.25z"/>
		<path id="Layer 3 copy 4" fill-rule="evenodd" class="s2" d="m66.25 251.5c-16.73 0-30.25-13.52-30.25-30.25 0-16.73 13.52-30.25 30.25-30.25 16.73 0 30.25 13.52 30.25 30.25 0 16.73-13.52 30.25-30.25 30.25z"/>
		<path id="Layer 3 copy 5" fill-rule="evenodd" class="s2" d="m200.25 343.5c-16.73 0-30.25-13.52-30.25-30.25 0-16.73 13.52-30.25 30.25-30.25 16.73 0 30.25 13.52 30.25 30.25 0 16.73-13.52 30.25-30.25 30.25z"/>
		<path id="Layer 3 copy 6" fill-rule="evenodd" class="s2" d="m324.25 289.5c-16.73 0-30.25-13.52-30.25-30.25 0-16.73 13.52-30.25 30.25-30.25 16.73 0 30.25 13.52 30.25 30.25 0 16.73-13.52 30.25-30.25 30.25z"/>
	</g>
	<g id="Folder 6">
		<path id="Shape 3" class="s3" d="m272.13 64.38l10.99 16.7-34.25 22.54-10.99-16.7zm0 0l10.99 16.7-34.25 22.54-10.99-16.71z"/>
		<path id="Shape 3 copy 3" class="s3" d="m182.18 161.76l19.94 1.61-3.3 40.87-19.94-1.61zm0 0l19.94 1.61-3.3 40.86-19.93-1.6z"/>
		<path id="Shape 3 copy 4" class="s3" d="m304.65 136.6l19.02-6.19 12.68 38.99-19.02 6.19zm0 0l19.02-6.19 12.69 38.99-19.02 6.19z"/>
		<path id="Shape 3 copy 5" class="s3" d="m224.65 296.6l19.02-6.19 12.68 38.99-19.02 6.19zm0 0l19.02-6.19 12.69 38.99-19.02 6.19z"/>
		<path id="Shape 3 copy 6" class="s3" d="m54.65 226.6l19.02-6.19 12.68 38.99-19.02 6.19zm0 0l19.02-6.19 12.69 38.99-19.02 6.19z"/>
		<path id="Shape 3 copy 7" class="s3" d="m104.65 176.6l19.02-6.19 12.68 38.99-19.02 6.19zm0 0l19.02-6.19 12.69 38.99-19.02 6.19z"/>
		<path id="Shape 3 copy 8" class="s3" d="m234.65 146.6l19.02-6.19 12.68 38.99-19.02 6.19zm0 0l19.02-6.19 12.69 38.99-19.02 6.19z"/>
		<path id="Shape 3 copy 9" class="s3" d="m104.65 176.6l19.02-6.19 12.68 38.99-19.02 6.19zm0 0l19.02-6.19 12.69 38.99-19.02 6.19z"/>
		<path id="Shape 3 copy 10" class="s3" d="m310.94 260.2l17.8 9.11-18.68 36.49-17.8-9.11zm0 0l17.8 9.11-18.69 36.5-17.8-9.12z"/>
		<path id="Shape 3 copy" class="s3" d="m122.13 94.38l10.99 16.7-34.25 22.54-10.99-16.7zm175.27 107.88l14.48 13.79-28.28 29.69-14.48-13.8z"/>
		<path id="Shape 3 copy 2" class="s3" d="m125.65 289.14l11.89-16.08 32.97 24.37-11.9 16.09zm40.84-201.73l7.95-18.35 37.62 16.31-7.96 18.35z"/>
	</g>
	<path id="Shape 4" fill-rule="evenodd" class="s4" d="m132.9 225.6l47.2 10.4-47.2 10.4z"/>
	<path id="Shape 4 copy" fill-rule="evenodd" class="s4" d="m248 231.75l-34.24 34.11 16.73-45.34z"/>
	<path id="Shape 4 copy 2" fill-rule="evenodd" class="s4" d="m178 121.75l-34.24 34.11 16.73-45.34z"/>
	<path id="Shape 4 copy 3" fill-rule="evenodd" class="s4" d="m228.13 69.74l-35.73-32.55 46.1 14.52z"/>
	<path id="Shape 4 copy 4" fill-rule="evenodd" class="s4" d="m198.13 359.74l-35.73-32.55 46.1 14.52z"/>
	<path id="Shape 4 copy 5" fill-rule="evenodd" class="s4" d="m108.13 319.74l-35.73-32.55 46.1 14.52z"/>
	<path id="Shape 4 copy 6" fill-rule="evenodd" class="s4" d="m358.13 229.74l-35.73-32.55 46.1 14.52z"/>
	<path id="Shape 4 copy 7" fill-rule="evenodd" class="s4" d="m41.8 178.93l25.4-41.12-5.77 47.98z"/>
</svg>