<svg version="1.2" xmlns="http://www.w3.org/2000/svg" viewBox="0 0 400 400" width="400" height="400">
	<style>
		.s0 { fill: #b57d00 } 
		.s1 { fill: #ffd986 } 
		.s2 { fill: #772724 } 
	</style>
	<path id="Layer 1" fill-rule="evenodd" class="s0" d="m200 400c-110.6 0-200-89.4-200-200 0-110.6 89.4-200 200-200 110.6 0 200 89.4 200 200 0 110.6-89.4 200-200 200z"/>
	<path id="Layer 2" fill-rule="evenodd" class="s1" d="m199.75 382.5c-101.06 0-182.75-81.69-182.75-182.75 0-101.06 81.69-182.75 182.75-182.75 101.06 0 182.75 81.69 182.75 182.75 0 101.06-81.69 182.75-182.75 182.75z"/>
	<g id="Folder 1">
		<path id="Layer 3" fill-rule="evenodd" class="s2" d="m138.25 109.5c-16.73 0-30.25-13.52-30.25-30.25 0-16.73 13.52-30.25 30.25-30.25 16.73 0 30.25 13.52 30.25 30.25 0 16.73-13.52 30.25-30.25 30.25z"/>
		<path id="Layer 3 copy" fill-rule="evenodd" class="s2" d="m305.25 146.5c-16.73 0-30.25-13.52-30.25-30.25 0-16.73 13.52-30.25 30.25-30.25 16.73 0 30.25 13.52 30.25 30.25 0 16.73-13.52 30.25-30.25 30.25z"/>
		<path id="Layer 3 copy 2" fill-rule="evenodd" class="s2" d="m250.25 237.5c-16.73 0-30.25-13.52-30.25-30.25 0-16.73 13.52-30.25 30.25-30.25 16.73 0 30.25 13.52 30.25 30.25 0 16.73-13.52 30.25-30.25 30.25z"/>
		<path id="Layer 3 copy 3" fill-rule="evenodd" class="s2" d="m145.25 200.5c-16.73 0-30.25-13.52-30.25-30.25 0-16.73 13.52-30.25 30.25-30.25 16.73 0 30.25 13.52 30.25 30.25 0 16.73-13.52 30.25-30.25 30.25z"/>
		<path id="Layer 3 copy 4" fill-rule="evenodd" class="s2" d="m66.25 251.5c-16.73 0-30.25-13.52-30.25-30.25 0-16.73 13.52-30.25 30.25-30.25 16.73 0 30.25 13.52 30.25 30.25 0 16.73-13.52 30.25-30.25 30.25z"/>
		<path id="Layer 3 copy 5" fill-rule="evenodd" class="s2" d="m200.25 343.5c-16.73 0-30.25-13.52-30.25-30.25 0-16.73 13.52-30.25 30.25-30.25 16.73 0 30.25 13.52 30.25 30.25 0 16.73-13.52 30.25-30.25 30.25z"/>
		<path id="Layer 3 copy 6" fill-rule="evenodd" class="s2" d="m324.25 289.5c-16.73 0-30.25-13.52-30.25-30.25 0-16.73 13.52-30.25 30.25-30.25 16.73 0 30.25 13.52 30.25 30.25 0 16.73-13.52 30.25-30.25 30.25z"/>
	</g>
</svg>