<svg version="1.2" xmlns="http://www.w3.org/2000/svg" viewBox="0 0 400 400" width="400" height="400">
	<style>
		.s0 { fill: #b57d00 } 
		.s1 { fill: #ffd986 } 
		.s2 { fill: #772724 } 
		.s3 { fill: none;stroke: #161616;stroke-miterlimit:100;stroke-width: 17 } 
		.s4 { fill: #113806 } 
	</style>
	<path id="Layer 1" fill-rule="evenodd" class="s0" d="m200 400c-110.6 0-200-89.4-200-200 0-110.6 89.4-200 200-200 110.6 0 200 89.4 200 200 0 110.6-89.4 200-200 200z"/>
	<path id="Layer 2" fill-rule="evenodd" class="s1" d="m199.75 382.5c-101.06 0-182.75-81.69-182.75-182.75 0-101.06 81.69-182.75 182.75-182.75 101.06 0 182.75 81.69 182.75 182.75 0 101.06-81.69 182.75-182.75 182.75z"/>
	<g id="Folder 1">
		<path id="Layer 3" fill-rule="evenodd" class="s2" d="m138.25 109.5c-16.73 0-30.25-13.52-30.25-30.25 0-16.73 13.52-30.25 30.25-30.25 16.73 0 30.25 13.52 30.25 30.25 0 16.73-13.52 30.25-30.25 30.25z"/>
		<path id="Layer 3 copy" fill-rule="evenodd" class="s2" d="m305.25 146.5c-16.73 0-30.25-13.52-30.25-30.25 0-16.73 13.52-30.25 30.25-30.25 16.73 0 30.25 13.52 30.25 30.25 0 16.73-13.52 30.25-30.25 30.25z"/>
		<path id="Layer 3 copy 2" fill-rule="evenodd" class="s2" d="m250.25 237.5c-16.73 0-30.25-13.52-30.25-30.25 0-16.73 13.52-30.25 30.25-30.25 16.73 0 30.25 13.52 30.25 30.25 0 16.73-13.52 30.25-30.25 30.25z"/>
		<path id="Layer 3 copy 3" fill-rule="evenodd" class="s2" d="m145.25 200.5c-16.73 0-30.25-13.52-30.25-30.25 0-16.73 13.52-30.25 30.25-30.25 16.73 0 30.25 13.52 30.25 30.25 0 16.73-13.52 30.25-30.25 30.25z"/>
		<path id="Layer 3 copy 4" fill-rule="evenodd" class="s2" d="m66.25 251.5c-16.73 0-30.25-13.52-30.25-30.25 0-16.73 13.52-30.25 30.25-30.25 16.73 0 30.25 13.52 30.25 30.25 0 16.73-13.52 30.25-30.25 30.25z"/>
		<path id="Layer 3 copy 5" fill-rule="evenodd" class="s2" d="m200.25 343.5c-16.73 0-30.25-13.52-30.25-30.25 0-16.73 13.52-30.25 30.25-30.25 16.73 0 30.25 13.52 30.25 30.25 0 16.73-13.52 30.25-30.25 30.25z"/>
		<path id="Layer 3 copy 6" fill-rule="evenodd" class="s2" d="m324.25 289.5c-16.73 0-30.25-13.52-30.25-30.25 0-16.73 13.52-30.25 30.25-30.25 16.73 0 30.25 13.52 30.25 30.25 0 16.73-13.52 30.25-30.25 30.25z"/>
	</g>
	<g id="Folder 2">
		<path id="Layer 4" fill-rule="evenodd" class="s3" d="m273 94c-8.85 0-16-7.15-16-16 0-8.85 7.15-16 16-16 8.85 0 16 7.15 16 16 0 8.85-7.15 16-16 16z"/>
		<path id="Layer 4 copy" fill-rule="evenodd" class="s3" d="m123 204c-8.85 0-16-7.15-16-16 0-8.85 7.15-16 16-16 8.85 0 16 7.15 16 16 0 8.85-7.15 16-16 16z"/>
		<path id="Layer 4 copy 2" fill-rule="evenodd" class="s3" d="m293 234c-8.85 0-16-7.15-16-16 0-8.85 7.15-16 16-16 8.85 0 16 7.15 16 16 0 8.85-7.15 16-16 16z"/>
		<path id="Layer 4 copy 3" fill-rule="evenodd" class="s3" d="m173 104c-8.85 0-16-7.15-16-16 0-8.85 7.15-16 16-16 8.85 0 16 7.15 16 16 0 8.85-7.15 16-16 16z"/>
		<path id="Layer 4 copy 4" fill-rule="evenodd" class="s3" d="m203 264c-8.85 0-16-7.15-16-16 0-8.85 7.15-16 16-16 8.85 0 16 7.15 16 16 0 8.85-7.15 16-16 16z"/>
		<path id="Layer 4 copy 5" fill-rule="evenodd" class="s3" d="m113 304c-8.85 0-16-7.15-16-16 0-8.85 7.15-16 16-16 8.85 0 16 7.15 16 16 0 8.85-7.15 16-16 16z"/>
		<path id="Layer 4 copy 6" fill-rule="evenodd" class="s3" d="m53 174c-8.85 0-16-7.15-16-16 0-8.85 7.15-16 16-16 8.85 0 16 7.15 16 16 0 8.85-7.15 16-16 16z"/>
		<path id="Layer 4 copy 7" fill-rule="evenodd" class="s3" d="m293 334c-8.85 0-16-7.15-16-16 0-8.85 7.15-16 16-16 8.85 0 16 7.15 16 16 0 8.85-7.15 16-16 16z"/>
	</g>
	<g id="Folder 3">
		<path id="Layer 5" class="s4" d="m235.78 132.56l-14.94 23.68-7.62-4.8 14.94-23.68zm0 0l-14.94 23.68-7.61-4.8 14.94-23.68zm0 0l-14.94 23.68-7.61-4.8 14.94-23.69zm0 0l-14.94 23.69-7.61-4.81 14.94-23.68zm0 0l-14.94 23.68-7.61-4.8 14.94-23.68zm0 0l-14.94 23.68-7.61-4.8 14.93-23.68zm0 0l-14.93 23.68-7.62-4.8 14.94-23.68zm0 0l-14.94 23.68-7.61-4.81 14.94-23.68z"/>
		<path id="Layer 5 copy" class="s4" d="m340.93 177.73l14.78 23.79-7.64 4.75-14.78-23.79zm0 0l14.78 23.79-7.65 4.75-14.78-23.79zm0 0l14.78 23.79-7.64 4.75-14.78-23.79zm0 0l14.78 23.79-7.65 4.75-14.77-23.79zm0 0l14.77 23.79-7.64 4.75-14.78-23.78zm0 0l14.78 23.78-7.64 4.75-14.78-23.78zm0 0l14.78 23.78-7.65 4.75-14.78-23.78zm0 0l14.78 23.78-7.64 4.75-14.78-23.78z"/>
		<path id="Layer 5 copy 2" class="s4" d="m140.93 317.73l14.78 23.79-7.64 4.75-14.78-23.79zm0 0l14.78 23.79-7.65 4.75-14.78-23.79zm0 0l14.78 23.79-7.64 4.75-14.78-23.79zm0 0l14.78 23.79-7.65 4.75-14.77-23.79zm0 0l14.77 23.79-7.64 4.75-14.78-23.78zm0 0l14.78 23.78-7.64 4.75-14.78-23.78zm0 0l14.78 23.78-7.65 4.75-14.78-23.78zm0 0l14.78 23.78-7.64 4.75-14.78-23.78z"/>
		<path id="Layer 5 copy 3" class="s4" d="m126.14 223.01l-15.87 23.08-7.41-5.1 15.87-23.08zm0 0l-15.87 23.08-7.42-5.1 15.87-23.08zm0 0l-15.87 23.08-7.41-5.11 15.86-23.07zm0 0l-15.86 23.07-7.42-5.1 15.87-23.07zm0 0l-15.87 23.07-7.41-5.1 15.86-23.07zm0 0l-15.86 23.07-7.42-5.1 15.87-23.07zm0 0l-15.87 23.07-7.41-5.1 15.86-23.07zm0 0l-15.86 23.07-7.42-5.1 15.87-23.07z"/>
		<path id="Layer 5 copy 4" class="s4" d="m86.14 93.01l-15.87 23.08-7.41-5.1 15.87-23.08zm0 0l-15.87 23.08-7.42-5.1 15.87-23.08zm0 0l-15.87 23.08-7.41-5.11 15.86-23.07zm0 0l-15.86 23.07-7.42-5.1 15.87-23.07zm0 0l-15.87 23.07-7.41-5.1 15.86-23.07zm0 0l-15.86 23.07-7.42-5.1 15.87-23.07zm0 0l-15.87 23.07-7.41-5.1 15.86-23.07zm0 0l-15.86 23.07-7.42-5.1 15.87-23.07z"/>
		<path id="Layer 5 copy 5" class="s4" d="m215.01 26.56l13.49 24.54-7.89 4.34-13.48-24.54zm0 0l13.48 24.54-7.88 4.33-13.49-24.54zm0 0l13.49 24.54-7.89 4.34-13.49-24.54zm0 0l13.49 24.54-7.89 4.33-13.49-24.54zm0 0l13.49 24.54-7.89 4.34-13.48-24.54zm0 0l13.48 24.54-7.88 4.33-13.49-24.54zm0 0l13.49 24.54-7.89 4.34-13.49-24.54zm0 0l13.49 24.54-7.89 4.33-13.48-24.54z"/>
		<path id="Layer 5 copy 6" class="s4" d="m245.01 326.56l13.49 24.54-7.89 4.34-13.48-24.54zm0 0l13.48 24.54-7.88 4.33-13.49-24.54zm0 0l13.49 24.54-7.89 4.34-13.49-24.54zm0 0l13.49 24.54-7.89 4.33-13.49-24.54zm0 0l13.49 24.54-7.89 4.34-13.48-24.54zm0 0l13.48 24.54-7.88 4.33-13.49-24.54zm0 0l13.49 24.54-7.89 4.34-13.49-24.54zm0 0l13.49 24.54-7.89 4.33-13.48-24.54z"/>
	</g>
</svg>